<?xml version="1.0" encoding="UTF-8" standalone="no"?>
<svg
   xmlns:dc="http://purl.org/dc/elements/1.1/"
   xmlns:cc="http://creativecommons.org/ns#"
   xmlns:rdf="http://www.w3.org/1999/02/22-rdf-syntax-ns#"
   xmlns:svg="http://www.w3.org/2000/svg"
   xmlns="http://www.w3.org/2000/svg"
   xmlns:sodipodi="http://sodipodi.sourceforge.net/DTD/sodipodi-0.dtd"
   xmlns:inkscape="http://www.inkscape.org/namespaces/inkscape"
   width="640"
   height="480"
   viewBox="0 0 169.33333 127"
   version="1.1"
   id="svg8"
   inkscape:version="1.0.1 (3bc2e813f5, 2020-09-07)"
   sodipodi:docname="no.svg"
   inkscape:export-filename="C:\Users\katahiromz\Desktop\deco-frame\no.png"
   inkscape:export-xdpi="96"
   inkscape:export-ydpi="96">
  <defs
     id="defs2">
    <pattern
       id="EMFhbasepattern"
       patternUnits="userSpaceOnUse"
       width="6"
       height="6"
       x="0"
       y="0" />
  </defs>
  <sodipodi:namedview
     id="base"
     pagecolor="#ffffff"
     bordercolor="#666666"
     borderopacity="1.0"
     inkscape:pageopacity="0.0"
     inkscape:pageshadow="2"
     inkscape:zoom="0.49497475"
     inkscape:cx="565.15606"
     inkscape:cy="420.18234"
     inkscape:document-units="mm"
     inkscape:current-layer="layer1"
     inkscape:document-rotation="0"
     showgrid="false"
     units="px"
     inkscape:window-width="1366"
     inkscape:window-height="705"
     inkscape:window-x="-8"
     inkscape:window-y="-8"
     inkscape:window-maximized="1" />
  <metadata
     id="metadata5">
    <rdf:RDF>
      <cc:Work
         rdf:about="">
        <dc:format>image/svg+xml</dc:format>
        <dc:type
           rdf:resource="http://purl.org/dc/dcmitype/StillImage" />
        <dc:title></dc:title>
      </cc:Work>
    </rdf:RDF>
  </metadata>
  <g
     inkscape:label="レイヤー 1"
     inkscape:groupmode="layer"
     id="layer1">
    <path
       style="fill:#ff0000;fill-opacity:1;fill-rule:evenodd;stroke:none;stroke-width:0.264583"
       d="m 116.60801,63.500005 c 0,5.61105 -1.47712,11.11305 -4.28264,15.97067 -2.79561,4.85762 -6.83041,8.89242 -11.68804,11.68803 -4.857617,2.80553 -10.359617,4.28264 -15.970667,4.28264 -5.61105,0 -11.11305,-1.47711 -15.970671,-4.28264 -4.857622,-2.79561 -8.892423,-6.83041 -11.688034,-11.68803 -2.805525,-4.85762 -4.282638,-10.35962 -4.282638,-15.97067 0,-5.61105 1.477113,-11.11305 4.282638,-15.97068 2.795611,-4.85762 6.830412,-8.89242 11.688034,-11.68803 4.857621,-2.80552 10.359621,-4.28264 15.970671,-4.28264 5.61105,0 11.11305,1.47712 15.970667,4.28264 4.85763,2.79561 8.89243,6.83041 11.68804,11.68803 2.80552,4.85763 4.28264,10.35963 4.28264,15.97068 z m -51.47097,-13.88884 -0.674119,0.99135 -0.614638,1.03101 -0.574984,1.06074 -0.505589,1.08058 -0.465935,1.11031 -0.396541,1.13014 -0.346973,1.14997 -0.287491,1.16979 -0.228011,1.17971 -0.178444,1.17971 -0.109048,1.19954 -0.04957,1.19953 0.0099,1.19954 0.0694,1.19953 0.138789,1.18962 0.188357,1.18963 0.247838,1.16979 0.307319,1.15988 0.3668,1.14997 0.416367,1.12023 0.485763,1.1004 0.525416,1.08057 0.584897,1.04092 0.644379,1.02109 0.684032,0.98144 0.733601,0.9517 0.783167,0.91204 0.832736,0.86248 0.862475,0.83273 0.912044,0.78317 0.951697,0.7336 0.981438,0.68403 1.021092,0.64438 1.050832,0.5849 1.07066,0.53533 1.1004,0.47585 1.12023,0.41636 1.14997,0.3668 1.15988,0.30732 1.16979,0.24784 1.18962,0.18836 1.18963,0.13879 1.19953,0.0694 1.19954,0.01 1.19953,-0.0496 1.19954,-0.10905 1.18962,-0.17844 1.17971,-0.22801 1.15988,-0.2875 1.14997,-0.34697 1.13014,-0.39654 1.11031,-0.46593 1.08057,-0.51551 1.06075,-0.56507 1.03101,-0.61464 0.991348,-0.67412 z m 39.03942,27.75784 0.67412,-0.99135 0.61464,-1.031 0.56507,-1.06075 0.5155,-1.08057 0.46593,-1.11032 0.39655,-1.13014 0.34697,-1.14997 0.28749,-1.15988 0.22801,-1.1797 0.17844,-1.18963 0.10905,-1.19953 0.0496,-1.19954 -0.01,-1.19953 -0.0694,-1.19954 -0.13879,-1.18962 -0.18835,-1.18962 -0.24784,-1.1698 -0.30732,-1.15988 -0.3668,-1.14996 -0.41639,-1.12023 -0.47585,-1.1004 -0.53533,-1.07066 -0.58489,-1.05083 -0.64438,-1.0211 -0.68403,-0.98143 -0.7336,-0.9517 -0.78317,-0.91205 -0.83274,-0.86247 -0.86248,-0.83274 -0.912036,-0.78316 -0.95169,-0.7336 -0.981441,-0.68404 -1.02109,-0.64438 -1.04092,-0.58489 -1.08058,-0.52542 -1.1004,-0.48576 -1.12022,-0.41637 -1.14997,-0.3668 -1.15988,-0.30732 -1.1698,-0.24784 -1.18962,-0.18835 -1.18962,-0.13879 -1.19954,-0.0694 -1.19953,-0.01 -1.19954,0.0496 -1.19953,0.10905 -1.17971,0.17844 -1.17971,0.22801 -1.16979,0.2875 -1.14997,0.34697 -1.13014,0.39654 -1.11032,0.46594 -1.08057,0.50558 -1.06075,0.57499 -1.031001,0.61464 -0.991352,0.67412 z"
       id="path836" />
    <path
       id="path838"
       style="fill:#ff0000;stroke:#3465a4;stroke-width:0.0374684px;stroke-linecap:round;stroke-linejoin:round;stroke-miterlimit:4;stroke-dasharray:none;stroke-opacity:1;fill-opacity:0.69144982"
       d="M 320 119.27734 C 298.79288 119.27734 277.99818 124.85935 259.63867 135.46289 C 241.27916 146.02898 226.02898 161.27916 215.46289 179.63867 C 204.85933 197.99822 199.27734 218.79288 199.27734 240 C 199.27734 261.20712 204.85933 282.00182 215.46289 300.36133 C 226.02898 318.72084 241.27916 333.97102 259.63867 344.53711 C 277.99818 355.14069 298.79288 360.72266 320 360.72266 C 341.20712 360.72266 362.00183 355.14069 380.36133 344.53711 C 398.72087 333.97102 413.97102 318.72084 424.53711 300.36133 C 435.14065 282.00182 440.72266 261.20712 440.72266 240 C 440.72266 218.79288 435.14065 197.99822 424.53711 179.63867 C 413.97102 161.27916 398.72087 146.02898 380.36133 135.46289 C 362.00183 124.85935 341.20712 119.27734 320 119.27734 z M 318.46289 149.43945 L 322.99805 149.47656 L 327.53125 149.73828 L 332.02734 150.26367 L 336.52344 150.97461 L 340.94531 151.91211 L 345.32812 153.07422 L 349.67383 154.45898 L 353.9082 156.0332 L 358.06836 157.86914 L 362.15234 159.85547 L 366.08594 162.06641 L 369.94531 164.50195 L 373.6543 167.08594 L 377.25195 169.85938 L 380.69922 172.81836 L 383.95898 175.9668 L 387.10547 179.22656 L 390.06641 182.67383 L 392.83789 186.26953 L 395.42383 189.98047 L 397.85938 193.83984 L 400.07031 197.81055 L 402.09375 201.85742 L 403.89062 206.01562 L 405.46484 210.25 L 406.85156 214.5957 L 408.01367 218.98047 L 408.94922 223.40234 L 409.66211 227.89844 L 410.18555 232.39453 L 410.44922 236.92773 L 410.48633 241.46094 L 410.29883 245.99414 L 409.88672 250.5293 L 409.21289 255.02539 L 408.34961 259.48438 L 407.26367 263.86719 L 405.95312 268.21289 L 404.45312 272.48438 L 402.69336 276.68164 L 400.74414 280.76562 L 398.60938 284.77539 L 396.28516 288.67188 L 393.73828 292.41797 L 267.50586 166.1875 L 271.25391 163.63867 L 275.15039 161.31641 L 279.1582 159.14258 L 283.24414 157.23242 L 287.43945 155.4707 L 291.71094 153.97266 L 296.05664 152.66016 L 300.47852 151.57422 L 304.9375 150.71289 L 309.39648 150.03906 L 313.92969 149.62695 L 318.46289 149.43945 z M 246.1875 187.50586 L 372.41797 313.73828 L 368.67188 316.28516 L 364.77539 318.60938 L 360.76562 320.74414 L 356.68164 322.69336 L 352.48438 324.45312 L 348.21289 325.95312 L 343.86719 327.26367 L 339.48438 328.35156 L 335.02539 329.21289 L 330.5293 329.88672 L 325.99414 330.29883 L 321.46094 330.48633 L 316.92773 330.44922 L 312.39453 330.18555 L 307.89844 329.66211 L 303.40234 328.94922 L 298.98047 328.01367 L 294.5957 326.85156 L 290.25 325.46484 L 286.01562 323.89258 L 281.85742 322.09375 L 277.81055 320.07031 L 273.83984 317.85938 L 269.98047 315.42383 L 266.26953 312.83789 L 262.67383 310.06641 L 259.22656 307.10547 L 255.9668 303.95898 L 252.81836 300.69922 L 249.85938 297.25195 L 247.08594 293.6543 L 244.50195 289.94531 L 242.06641 286.08594 L 239.85547 282.15234 L 237.86914 278.06836 L 236.0332 273.9082 L 234.45898 269.67578 L 233.07422 265.32812 L 231.91211 260.94531 L 230.97461 256.52344 L 230.26367 252.02734 L 229.73828 247.53125 L 229.47656 242.99805 L 229.43945 238.46289 L 229.62695 233.92969 L 230.03906 229.39648 L 230.71289 224.9375 L 231.57422 220.47852 L 232.66211 216.05859 L 233.97266 211.71094 L 235.4707 207.43945 L 237.23242 203.24414 L 239.14258 199.16016 L 241.31641 195.15039 L 243.63867 191.25391 L 246.1875 187.50586 z "
       transform="scale(0.26458333)" />
  </g>
</svg>
